<svg xmlns="http://www.w3.org/2000/svg" width="1200" height="280" viewBox="0 0 1200 280" preserveAspectRatio="xMidYMid slice">
  <defs>
    <linearGradient id="g1" x1="0" x2="1" y1="0" y2="1">
      <stop offset="0" stop-color="#0f172a"/>
      <stop offset="0.5" stop-color="#0ea5a4"/>
      <stop offset="1" stop-color="#7c3aed"/>
    </linearGradient>
    <filter id="f1" x="-50%" y="-50%" width="200%" height="200%">
      <feGaussianBlur stdDeviation="30" result="b"/>
      <feBlend in="SourceGraphic" in2="b"/>
    </filter>
  </defs>
  <rect width="1200" height="280" fill="url(#g1)"/>
  <g opacity="0.12" filter="url(#f1)">
    <circle cx="220" cy="80" r="120" fill="#ffffff"/>
    <circle cx="980" cy="200" r="160" fill="#ffffff"/>
  </g>
  <g transform="translate(90,70)" fill="#fff">
    <rect x="0" y="0" width="120" height="120" rx="20" fill="rgba(255,255,255,0.12)"/>
    <path d="M24 36 L48 36 L60 72 L84 48 L96 48 L72 84 L60 108 L36 84 L12 60 Z" transform="translate(12,6) scale(0.9)" fill="none" stroke="#fff" stroke-width="4" stroke-linejoin="round" stroke-linecap="round"/>
  </g>
  <g transform="translate(240,90)">
    <text x="0" y="0" font-family="Inter, Arial, sans-serif" font-size="40" fill="#fff" font-weight="700">Clever Tech Labs</text>
    <text x="0" y="44" font-family="Inter, Arial, sans-serif" font-size="18" fill="rgba(255,255,255,0.9)">Smart Tools • Sharp Code • Real Impact</text>
  </g>
  <g transform="translate(240,150)">
    <rect x="0" y="0" width="760" height="82" rx="10" fill="rgba(255,255,255,0.06)"/>
    <text x="20" y="28" font-family="Inter, Arial, sans-serif" font-size="16" fill="#e6f7f6">
      We build clever automation and intelligent developer tools — from Bash to AI.
    </text>
    <text x="20" y="52" font-family="Inter, Arial, sans-serif" font-size="14" fill="rgba(230,247,246,0.9)">
      Lightweight CLIs, AI assistants, and devops utilities engineered for humans.
    </text>
  </g>
</svg>